<!-- <?xml version="1.0"?> -->
<svg version="1.1" xmlns="http://www.w3.org/2000/svg" width="400px" height="80px" style="">
<path fill="#01060a" d="M111.386,47.912q-1.702,0.69-2.921,0.69t-1.219-0.506q0-0.322,1.357-0.368t1.955-0.322q1.748-0.92,1.748-2.714q0-0.92-0.506-1.932q-1.472-2.622-7.13-2.622q-3.266,0-6.532,0.989t-5.474,3.036t-2.208,3.795q0,2.668,5.29,3.91l5.428,1.012q3.266,0.598,4.876,1.656q2.116,1.288,2.116,3.68q0,0.966-0.322,2.07q-1.472,4.968-7.59,7.59q-5.106,2.254-12.052,2.254q-1.978,0-3.45-0.184q1.472,0.828,3.864,1.426q0.184,0.046,0.184,0.184q0,0.414-0.966,0.414q-1.886,0-4.692-2.254q-3.818-0.598-5.704-2.116q-1.196-0.966-2.208-2.852t-1.012-3.404t0.598-2.53q1.38-2.438,3.496-2.438q1.61,0,1.886,2.714q0.644,5.244,0.874,5.98q0.69,2.254,2.346,3.818q1.932,0.414,4.186,0.414q4.968,0,9.752-1.978t6.9-5.612q0.874-1.426,0.874-2.53q0-2.162-3.818-3.358l-8.096-1.84q-2.484-0.598-3.979-1.978t-1.495-3.174q0-2.76,3.45-5.52q2.622-2.116,6.417-3.289t7.452-1.173t6.049,1.058q3.082,1.426,3.082,4.163t-2.806,3.841z M81.762,68.428q-2.668-2.944-3.404-8.05q-0.414-2.898-0.782-2.898t-0.69,0.207t-0.644,0.897t-0.322,1.794q0,3.542,2.484,6.072q1.242,1.288,3.358,1.978z M129.93182,53.156q0-0.276,0.276-0.276q0.828,0,1.288,1.012q0.552,0.874,0.552,3.036q0,3.312-2.898,6.785t-6.256,3.473q-1.61,0-2.599-1.564t-0.989-3.22t0.736-4.048q-1.334,1.334-3.91,4.577t-3.496,4.761q-0.46,0-1.265-0.506t-0.805-0.966q0-1.104,2.806-7.291t4.186-6.187q0.506,0,0.92,0.483t0.414,0.736t-2.507,4.738t-2.461,5.405q4.37-5.29,4.646-5.612q4.462-5.152,5.842-5.152q0.506,0,0.989,0.437t0.483,0.782t-1.288,2.047t-2.185,3.335t-0.897,3.289q0,2.898,1.932,2.898l0.598,0q2.484,0,4.531-3.795t2.047-6.095q0-1.84-0.598-2.852q-0.092-0.092-0.092-0.23z M149.39764,53.846l0.644-0.138q0.506,0,0.966,0.414t0.46,0.644t-2.852,4.439t-2.852,5.865q0,0.138,0.046,0.276q0.23,1.058,1.012,1.058q2.392,0,8.74-7.912q0.138-0.184,0.322-0.184t0.184,0.345t-0.414,0.897q-5.888,7.866-8.97,7.866q-0.414,0-0.782-0.138q-2.024-0.782-2.024-3.036q0-0.782,0.184-1.564l-2.852,2.76q-2.714,2.392-3.933,2.392t-2.323-0.782q-1.242-0.92-1.242-2.438q0-3.358,4.692-8.027t8.602-4.669q1.518,0,2.024,1.058q0.138,0.368,0.23,0.621t0.138,0.253z M135.64364,65.162q0,1.656,1.15,1.656q2.668,0,7.268-5.842l4.876-6.716q-0.368-0.644-1.196-0.644q-2.806,0-7.452,4.347t-4.646,7.199z M158.60546,68.198q-0.506,0-0.92-0.138q-2.944-0.828-2.944-3.312q0-3.22,4.048-7.452t7.268-4.232q1.058,0,1.725,0.575t0.667,1.564t-0.598,2.07t-1.794,1.081t-1.196-0.736q0-0.506,0.621-1.541t0.621-1.104t-0.138-0.069q-1.288,0.138-3.519,1.84t-3.059,2.852l-1.794,2.622q-0.46,0.736-0.667,1.748t-0.207,1.518t0.575,1.15t1.633,0.644q2.3,0,5.704-2.691t5.244-5.129q0.23-0.276,0.552-0.276t0.322,0.184t-0.23,0.46q-2.53,3.358-6.049,5.865t-5.865,2.507z M173.65528,68.198q-0.506,0-0.92-0.138q-2.944-0.828-2.944-3.312q0-3.22,4.048-7.452t7.268-4.232q1.058,0,1.725,0.575t0.667,1.564t-0.598,2.07t-1.794,1.081t-1.196-0.736q0-0.506,0.621-1.541t0.621-1.104t-0.138-0.069q-1.288,0.138-3.519,1.84t-3.059,2.852l-1.794,2.622q-0.46,0.736-0.667,1.748t-0.207,1.518t0.575,1.15t1.633,0.644q2.3,0,5.704-2.691t5.244-5.129q0.23-0.276,0.552-0.276t0.322,0.184t-0.23,0.46q-2.53,3.358-6.049,5.865t-5.865,2.507z M196.1111,67.416q-2.714,0-2.714-3.174q0-1.794,1.265-3.979t3.105-5.129q-5.888,2.944-10.672,8.694q-2.668,4.002-3.128,4.002q-1.334,0-1.334-0.782q0-0.414,0.552-1.472q4.462-7.958,6.762-11.638q5.474-8.786,7.728-9.522q0.092-0.046,0.184-0.046q0.598,0,0.828,0.966q-0.138,0.966-4.784,6.992q-4.83,6.118-5.474,8.004q1.702-1.242,5.934-4.186q4.554-3.174,6.026-3.174t1.472,1.15q0,0.184-0.023,0.253t-3.197,4.347t-3.174,6.302q0,1.058,0.782,1.058q2.484-0.092,7.452-5.98q0.414-0.414,0.621-0.414t0.207,0.276q0,0.92-4.554,4.968q-2.852,2.484-3.864,2.484z M248.05292,54.444l4.462-0.092q1.656,0,1.656,0.23q0,0.598-6.716,1.058q-4.278,8.372-4.278,11.408q0,2.116,1.334,2.116q0.506,0,1.265-0.621t0.92-0.621t0.161,0.23q-0.23,0.828-1.403,1.38t-1.978,0.552t-1.265-0.092q-1.104-0.414-1.104-2.668q0-4.646,3.542-11.822l-5.52,0.138q-6.164,6.026-12.374,10.58q-9.292,6.762-14.536,6.762q-0.322,0-0.644-0.046q-7.084-0.598-7.084-7.268q0-3.956,2.484-8.372q3.312-5.888,9.062-10.051t10.304-4.163t4.554,3.358q0,2.254-1.38,5.014t-2.806,3.496q-0.138,0.046-0.299,0.046t-0.161-0.092l1.518-2.484q1.564-2.438,1.564-4.278t-0.805-2.967t-2.553-1.127q-3.588,0-8.579,4.002t-7.59,9.844t-2.599,9.108q0,4.922,5.014,4.922q4.784,0,12.972-6.164q3.634-2.714,11.822-10.258q-1.61,0.092-2.99,0.322q-2.944,0.552-2.76-0.184q0.184-1.702,1.748-1.702q3.036,0.368,5.106,0.368q3.956-3.634,11.822-11.914q5.29-5.566,6.44-5.566q0.506,0,0.506,0.782t-0.414,2.438t-0.92,2.024q-1.058,0.736-1.978,2.001t-2.622,4.738t-2.898,5.635z M251.73292,43.22l-11.776,11.04l2.714,0q0.966,0.046,2.392,0.046q1.334-2.622,6.67-11.086z M271.98074,53.156q0-0.276,0.276-0.276q0.828,0,1.288,1.012q0.552,0.874,0.552,3.036q0,3.312-2.898,6.785t-6.256,3.473q-1.61,0-2.599-1.564t-0.989-3.22t0.736-4.048q-1.334,1.334-3.91,4.577t-3.496,4.761q-0.46,0-1.265-0.506t-0.805-0.966q0-1.104,2.806-7.291t4.186-6.187q0.506,0,0.92,0.483t0.414,0.736t-2.507,4.738t-2.461,5.405q4.37-5.29,4.646-5.612q4.462-5.152,5.842-5.152q0.506,0,0.989,0.437t0.483,0.782t-1.288,2.047t-2.185,3.335t-0.897,3.289q0,2.898,1.932,2.898l0.598,0q2.484,0,4.531-3.795t2.047-6.095q0-1.84-0.598-2.852q-0.092-0.092-0.092-0.23z M291.44656,53.846l0.644-0.138q0.506,0,0.966,0.414t0.46,0.644t-2.852,4.439t-2.852,5.865q0,0.138,0.046,0.276q0.23,1.058,1.012,1.058q2.392,0,8.74-7.912q0.138-0.184,0.322-0.184t0.184,0.345t-0.414,0.897q-5.888,7.866-8.97,7.866q-0.414,0-0.782-0.138q-2.024-0.782-2.024-3.036q0-0.782,0.184-1.564l-2.852,2.76q-2.714,2.392-3.933,2.392t-2.323-0.782q-1.242-0.92-1.242-2.438q0-3.358,4.692-8.027t8.602-4.669q1.518,0,2.024,1.058q0.138,0.368,0.23,0.621t0.138,0.253z M277.69256,65.162q0,1.656,1.15,1.656q2.668,0,7.268-5.842l4.876-6.716q-0.368-0.644-1.196-0.644q-2.806,0-7.452,4.347t-4.646,7.199z M306.54238,67.83q-3.45,0-3.45-3.818q0-1.932,1.012-4.232t2.208-3.864q-0.23,0.046-0.598,0.046q-1.104,0-1.84-1.564l-3.404,4.416q-2.852,3.542-3.312,3.542q-0.23,0-0.23-0.184q0-0.46,0.782-1.334q4.002-4.646,5.658-7.866q1.058-4.002,2.668-4.002q1.058,0,1.058,0.92t-1.15,2.346l-1.104,1.472q0,0.966,1.426,0.966q0.828,0,1.84-0.598l1.196-0.736q0.092-0.046,0.46-0.046t0.782,0.46t0.276,0.828l-3.174,4.002q-2.944,3.772-2.944,5.957t2.024,2.185q2.116,0,5.198-2.254q1.84-1.334,3.358-2.99q1.426-1.656,1.564-1.656q0.322,0,0.322,0.345t-0.414,0.805l-1.472,1.656q-1.242,1.288-2.76,2.484q-3.634,2.714-5.98,2.714z M319.6602,68.198q-0.506,0-0.92-0.138q-2.944-0.828-2.944-3.312q0-3.22,4.048-7.452t7.268-4.232q1.058,0,1.725,0.575t0.667,1.403q0,2.576-3.887,4.922t-6.325,2.346q-0.368,0-0.644-0.092q-0.69,1.242-0.69,2.622q0,2.392,2.277,2.392t5.911-3.082q2.806-2.254,4.784-4.784q0.414-0.552,0.713-0.552t0.299,0.276t-0.368,0.782q-2.484,3.266-5.98,5.796t-5.934,2.53z M328.3542,54.95q0-0.552-1.173-0.552t-3.335,1.794q-2.898,2.392-4.508,5.014q0.276,0.092,0.598,0.092q1.748,0,4.669-1.863t3.657-4.071q0.092-0.23,0.092-0.414z"/>
<path fill="#" d=""/>
</svg>
