<?xml version="1.0"?>
<svg version="1.1" xmlns="http://www.w3.org/2000/svg" width="400px" height="200px" style="border: dashed 2px #aaa"><path fill="#e4eff7" d="M117.476,106.192q-1.332,0.54-2.286,0.54t-0.954-0.396q0-0.252,1.062-0.288t1.53-0.252q1.368-0.72,1.368-2.124q0-0.72-0.396-1.512q-1.152-2.052-5.58-2.052q-2.556,0-5.112,0.774t-4.284,2.376t-1.728,2.97q0,2.088,4.14,3.06l4.248,0.792q2.556,0.468,3.816,1.296q1.656,1.008,1.656,2.88q0,0.756-0.252,1.62q-1.152,3.888-5.94,5.94q-3.996,1.764-9.432,1.764q-1.548,0-2.7-0.144q1.152,0.648,3.024,1.116q0.144,0.036,0.144,0.144q0,0.324-0.756,0.324q-1.476,0-3.672-1.764q-2.988-0.468-4.464-1.656q-0.936-0.756-1.728-2.232t-0.792-2.664t0.468-1.98q1.08-1.908,2.736-1.908q1.26,0,1.476,2.124q0.504,4.104,0.684,4.68q0.54,1.764,1.836,2.988q1.512,0.324,3.276,0.324q3.888,0,7.632-1.548t5.4-4.392q0.684-1.116,0.684-1.98q0-1.692-2.988-2.628l-6.336-1.44q-1.944-0.468-3.114-1.548t-1.17-2.484q0-2.16,2.7-4.32q2.052-1.656,5.022-2.574t5.832-0.918t4.734,0.828q2.412,1.116,2.412,3.258t-2.196,3.006z M94.292,122.248q-2.088-2.304-2.664-6.3q-0.324-2.268-0.612-2.268t-0.54,0.162t-0.504,0.702t-0.252,1.404q0,2.772,1.944,4.752q0.972,1.008,2.628,1.548z M131.99012,110.296q0-0.216,0.216-0.216q0.648,0,1.008,0.792q0.432,0.684,0.432,2.376q0,2.592-2.268,5.31t-4.896,2.718q-1.26,0-2.034-1.224t-0.774-2.52t0.576-3.168q-1.044,1.044-3.06,3.582t-2.736,3.726q-0.36,0-0.99-0.396t-0.63-0.756q0-0.864,2.196-5.706t3.276-4.842q0.396,0,0.72,0.378t0.324,0.576t-1.962,3.708t-1.926,4.23q3.42-4.14,3.636-4.392q3.492-4.032,4.572-4.032q0.396,0,0.774,0.342t0.378,0.612t-1.008,1.602t-1.71,2.61t-0.702,2.574q0,2.268,1.512,2.268l0.468,0q1.944,0,3.546-2.97t1.602-4.77q0-1.44-0.468-2.232q-0.072-0.072-0.072-0.18z M147.22424,110.836l0.504-0.108q0.396,0,0.756,0.324t0.36,0.504t-2.232,3.474t-2.232,4.59q0,0.108,0.036,0.216q0.18,0.828,0.792,0.828q1.872,0,6.84-6.192q0.108-0.144,0.252-0.144t0.144,0.27t-0.324,0.702q-4.608,6.156-7.02,6.156q-0.324,0-0.612-0.108q-1.584-0.612-1.584-2.376q0-0.612,0.144-1.224l-2.232,2.16q-2.124,1.872-3.078,1.872t-1.818-0.612q-0.972-0.72-0.972-1.908q0-2.628,3.672-6.282t6.732-3.654q1.188,0,1.584,0.828q0.108,0.288,0.18,0.486t0.108,0.198z M136.46024,119.692q0,1.296,0.9,1.296q2.088,0,5.688-4.572l3.816-5.256q-0.288-0.504-0.936-0.504q-2.196,0-5.832,3.402t-3.636,5.634z M154.43036,122.068q-0.396,0-0.72-0.108q-2.304-0.648-2.304-2.592q0-2.52,3.168-5.832t5.688-3.312q0.828,0,1.35,0.45t0.522,1.224t-0.468,1.62t-1.404,0.846t-0.936-0.576q0-0.396,0.486-1.206t0.486-0.864t-0.108-0.054q-1.008,0.108-2.754,1.44t-2.394,2.232l-1.404,2.052q-0.36,0.576-0.522,1.368t-0.162,1.188t0.45,0.9t1.278,0.504q1.8,0,4.464-2.106t4.104-4.014q0.18-0.216,0.432-0.216t0.252,0.144t-0.18,0.36q-1.98,2.628-4.734,4.59t-4.59,1.962z M166.20848,122.068q-0.396,0-0.72-0.108q-2.304-0.648-2.304-2.592q0-2.52,3.168-5.832t5.688-3.312q0.828,0,1.35,0.45t0.522,1.224t-0.468,1.62t-1.404,0.846t-0.936-0.576q0-0.396,0.486-1.206t0.486-0.864t-0.108-0.054q-1.008,0.108-2.754,1.44t-2.394,2.232l-1.404,2.052q-0.36,0.576-0.522,1.368t-0.162,1.188t0.45,0.9t1.278,0.504q1.8,0,4.464-2.106t4.104-4.014q0.18-0.216,0.432-0.216t0.252,0.144t-0.18,0.36q-1.98,2.628-4.734,4.59t-4.59,1.962z M183.7826,121.456q-2.124,0-2.124-2.484q0-1.404,0.99-3.114t2.43-4.014q-4.608,2.304-8.352,6.804q-2.088,3.132-2.448,3.132q-1.044,0-1.044-0.612q0-0.324,0.432-1.152q3.492-6.228,5.292-9.108q4.284-6.876,6.048-7.452q0.072-0.036,0.144-0.036q0.468,0,0.648,0.756q-0.108,0.756-3.744,5.472q-3.78,4.788-4.284,6.264q1.332-0.972,4.644-3.276q3.564-2.484,4.716-2.484t1.152,0.9q0,0.144-0.018,0.198t-2.502,3.402t-2.484,4.932q0,0.828,0.612,0.828q1.944-0.072,5.832-4.68q0.324-0.324,0.486-0.324t0.162,0.216q0,0.72-3.564,3.888q-2.232,1.944-3.024,1.944z M224.43272,111.304l3.492-0.072q1.296,0,1.296,0.18q0,0.468-5.256,0.828q-3.348,6.552-3.348,8.928q0,1.656,1.044,1.656q0.396,0,0.99-0.486t0.72-0.486t0.126,0.18q-0.18,0.648-1.098,1.08t-1.548,0.432t-0.99-0.072q-0.864-0.324-0.864-2.088q0-3.636,2.772-9.252l-4.32,0.108q-4.824,4.716-9.684,8.28q-7.272,5.292-11.376,5.292q-0.252,0-0.504-0.036q-5.544-0.468-5.544-5.688q0-3.096,1.944-6.552q2.592-4.608,7.092-7.866t8.064-3.258t3.564,2.628q0,1.764-1.08,3.924t-2.196,2.736q-0.108,0.036-0.234,0.036t-0.126-0.072l1.188-1.944q1.224-1.908,1.224-3.348t-0.63-2.322t-1.998-0.882q-2.808,0-6.714,3.132t-5.94,7.704t-2.034,7.128q0,3.852,3.924,3.852q3.744,0,10.152-4.824q2.844-2.124,9.252-8.028q-1.26,0.072-2.34,0.252q-2.304,0.432-2.16-0.144q0.144-1.332,1.368-1.332q2.376,0.288,3.996,0.288q3.096-2.844,9.252-9.324q4.14-4.356,5.04-4.356q0.396,0,0.396,0.612t-0.324,1.908t-0.72,1.584q-0.828,0.576-1.548,1.566t-2.052,3.708t-2.268,4.41z M227.31272,102.52l-9.216,8.64l2.124,0q0.756,0.036,1.872,0.036q1.044-2.052,5.22-8.676z M243.15884,110.296q0-0.216,0.216-0.216q0.648,0,1.008,0.792q0.432,0.684,0.432,2.376q0,2.592-2.268,5.31t-4.896,2.718q-1.26,0-2.034-1.224t-0.774-2.52t0.576-3.168q-1.044,1.044-3.06,3.582t-2.736,3.726q-0.36,0-0.99-0.396t-0.63-0.756q0-0.864,2.196-5.706t3.276-4.842q0.396,0,0.72,0.378t0.324,0.576t-1.962,3.708t-1.926,4.23q3.42-4.14,3.636-4.392q3.492-4.032,4.572-4.032q0.396,0,0.774,0.342t0.378,0.612t-1.008,1.602t-1.71,2.61t-0.702,2.574q0,2.268,1.512,2.268l0.468,0q1.944,0,3.546-2.97t1.602-4.77q0-1.44-0.468-2.232q-0.072-0.072-0.072-0.18z M258.39296,110.836l0.504-0.108q0.396,0,0.756,0.324t0.36,0.504t-2.232,3.474t-2.232,4.59q0,0.108,0.036,0.216q0.18,0.828,0.792,0.828q1.872,0,6.84-6.192q0.108-0.144,0.252-0.144t0.144,0.27t-0.324,0.702q-4.608,6.156-7.02,6.156q-0.324,0-0.612-0.108q-1.584-0.612-1.584-2.376q0-0.612,0.144-1.224l-2.232,2.16q-2.124,1.872-3.078,1.872t-1.818-0.612q-0.972-0.72-0.972-1.908q0-2.628,3.672-6.282t6.732-3.654q1.188,0,1.584,0.828q0.108,0.288,0.18,0.486t0.108,0.198z M247.62896,119.692q0,1.296,0.9,1.296q2.088,0,5.688-4.572l3.816-5.256q-0.288-0.504-0.936-0.504q-2.196,0-5.832,3.402t-3.636,5.634z M270.20708,121.78q-2.7,0-2.7-2.988q0-1.512,0.792-3.312t1.728-3.024q-0.18,0.036-0.468,0.036q-0.864,0-1.44-1.224l-2.664,3.456q-2.232,2.772-2.592,2.772q-0.18,0-0.18-0.144q0-0.36,0.612-1.044q3.132-3.636,4.428-6.156q0.828-3.132,2.088-3.132q0.828,0,0.828,0.72t-0.9,1.836l-0.864,1.152q0,0.756,1.116,0.756q0.648,0,1.44-0.468l0.936-0.576q0.072-0.036,0.36-0.036t0.612,0.36t0.216,0.648l-2.484,3.132q-2.304,2.952-2.304,4.662t1.584,1.71q1.656,0,4.068-1.764q1.44-1.044,2.628-2.34q1.116-1.296,1.224-1.296q0.252,0,0.252,0.27t-0.324,0.63l-1.152,1.296q-0.972,1.008-2.16,1.944q-2.844,2.124-4.68,2.124z M280.4732,122.068q-0.396,0-0.72-0.108q-2.304-0.648-2.304-2.592q0-2.52,3.168-5.832t5.688-3.312q0.828,0,1.35,0.45t0.522,1.098q0,2.016-3.042,3.852t-4.95,1.836q-0.288,0-0.504-0.072q-0.54,0.972-0.54,2.052q0,1.872,1.782,1.872t4.626-2.412q2.196-1.764,3.744-3.744q0.324-0.432,0.558-0.432t0.234,0.216t-0.288,0.612q-1.944,2.556-4.68,4.536t-4.644,1.98z M287.2772,111.7q0-0.432-0.918-0.432t-2.61,1.404q-2.268,1.872-3.528,3.924q0.216,0.072,0.468,0.072q1.368,0,3.654-1.458t2.862-3.186q0.072-0.18,0.072-0.324z"/><path fill="#" d=""/></svg>
