<?xml version="1.0"?>
<svg version="1.1" xmlns="http://www.w3.org/2000/svg" width="400px" height="200px" style=""><path fill="#" d="M70.624,111.008q-2.368,0.96-4.064,0.96t-1.696-0.704q0-0.448,1.888-0.512t2.72-0.448q2.432-1.28,2.432-3.776q0-1.28-0.704-2.688q-2.048-3.648-9.92-3.648q-4.544,0-9.088,1.376t-7.616,4.224t-3.072,5.28q0,3.712,7.36,5.44l7.552,1.408q4.544,0.832,6.784,2.304q2.944,1.792,2.944,5.12q0,1.344-0.448,2.88q-2.048,6.912-10.56,10.56q-7.104,3.136-16.768,3.136q-2.752,0-4.8-0.256q2.048,1.152,5.376,1.984q0.256,0.064,0.256,0.256q0,0.576-1.344,0.576q-2.624,0-6.528-3.136q-5.312-0.832-7.936-2.944q-1.664-1.344-3.072-3.968t-1.408-4.736t0.832-3.52q1.92-3.392,4.864-3.392q2.24,0,2.624,3.776q0.896,7.296,1.216,8.32q0.96,3.136,3.264,5.312q2.688,0.576,5.824,0.576q6.912,0,13.568-2.752t9.6-7.808q1.216-1.984,1.216-3.52q0-3.008-5.312-4.672l-11.264-2.56q-3.456-0.832-5.536-2.752t-2.08-4.416q0-3.84,4.8-7.68q3.648-2.944,8.928-4.576t10.368-1.632t8.416,1.472q4.288,1.984,4.288,5.792t-3.904,5.344z M29.408,139.552q-3.712-4.096-4.736-11.2q-0.576-4.032-1.088-4.032t-0.96,0.288t-0.896,1.248t-0.448,2.496q0,4.928,3.456,8.448q1.728,1.792,4.672,2.752z M96.42688,118.304q0-0.384,0.384-0.384q1.152,0,1.792,1.408q0.768,1.216,0.768,4.224q0,4.608-4.032,9.44t-8.704,4.832q-2.24,0-3.616-2.176t-1.376-4.48t1.024-5.632q-1.856,1.856-5.44,6.368t-4.864,6.624q-0.64,0-1.76-0.704t-1.12-1.344q0-1.536,3.904-10.144t5.824-8.608q0.704,0,1.28,0.672t0.576,1.024t-3.488,6.592t-3.424,7.52q6.08-7.36,6.464-7.808q6.208-7.168,8.128-7.168q0.704,0,1.376,0.608t0.672,1.088t-1.792,2.848t-3.04,4.64t-1.248,4.576q0,4.032,2.688,4.032l0.832,0q3.456,0,6.304-5.28t2.848-8.48q0-2.56-0.832-3.968q-0.128-0.128-0.128-0.32z M123.50976,119.264l0.896-0.192q0.704,0,1.344,0.576t0.64,0.896t-3.968,6.176t-3.968,8.16q0,0.192,0.064,0.384q0.32,1.472,1.408,1.472q3.328,0,12.16-11.008q0.192-0.256,0.448-0.256t0.256,0.48t-0.576,1.248q-8.192,10.944-12.48,10.944q-0.576,0-1.088-0.192q-2.816-1.088-2.816-4.224q0-1.088,0.256-2.176l-3.968,3.84q-3.776,3.328-5.472,3.328t-3.232-1.088q-1.728-1.28-1.728-3.392q0-4.672,6.528-11.168t11.968-6.496q2.112,0,2.816,1.472q0.192,0.512,0.32,0.864t0.192,0.352z M104.37376,135.008q0,2.304,1.6,2.304q3.712,0,10.112-8.128l6.784-9.344q-0.512-0.896-1.664-0.896q-3.904,0-10.368,6.048t-6.464,10.016z M136.32064,139.232q-0.704,0-1.28-0.192q-4.096-1.152-4.096-4.608q0-4.48,5.632-10.368t10.112-5.888q1.472,0,2.4,0.8t0.928,2.176t-0.832,2.88t-2.496,1.504t-1.664-1.024q0-0.704,0.864-2.144t0.864-1.536t-0.192-0.096q-1.792,0.192-4.896,2.56t-4.256,3.968l-2.496,3.648q-0.64,1.024-0.928,2.432t-0.288,2.112t0.8,1.6t2.272,0.896q3.2,0,7.936-3.744t7.296-7.136q0.32-0.384,0.768-0.384t0.448,0.256t-0.32,0.64q-3.52,4.672-8.416,8.16t-8.16,3.488z M157.25952,139.232q-0.704,0-1.28-0.192q-4.096-1.152-4.096-4.608q0-4.48,5.632-10.368t10.112-5.888q1.472,0,2.4,0.8t0.928,2.176t-0.832,2.88t-2.496,1.504t-1.664-1.024q0-0.704,0.864-2.144t0.864-1.536t-0.192-0.096q-1.792,0.192-4.896,2.56t-4.256,3.968l-2.496,3.648q-0.64,1.024-0.928,2.432t-0.288,2.112t0.8,1.6t2.272,0.896q3.2,0,7.936-3.744t7.296-7.136q0.32-0.384,0.768-0.384t0.448,0.256t-0.32,0.64q-3.52,4.672-8.416,8.16t-8.16,3.488z M188.5024,138.144q-3.776,0-3.776-4.416q0-2.496,1.76-5.536t4.32-7.136q-8.192,4.096-14.848,12.096q-3.712,5.568-4.352,5.568q-1.856,0-1.856-1.088q0-0.576,0.768-2.048q6.208-11.072,9.408-16.192q7.616-12.224,10.752-13.248q0.128-0.064,0.256-0.064q0.832,0,1.152,1.344q-0.192,1.344-6.656,9.728q-6.72,8.512-7.616,11.136q2.368-1.728,8.256-5.824q6.336-4.416,8.384-4.416t2.048,1.6q0,0.256-0.032,0.352t-4.448,6.048t-4.416,8.768q0,1.472,1.088,1.472q3.456-0.128,10.368-8.32q0.576-0.576,0.864-0.576t0.288,0.384q0,1.28-6.336,6.912q-3.968,3.456-5.376,3.456z M260.76928,120.096l6.208-0.128q2.304,0,2.304,0.32q0,0.832-9.344,1.472q-5.952,11.648-5.952,15.872q0,2.944,1.856,2.944q0.704,0,1.76-0.864t1.28-0.864t0.224,0.32q-0.32,1.152-1.952,1.92t-2.752,0.768t-1.76-0.128q-1.536-0.576-1.536-3.712q0-6.464,4.928-16.448l-7.68,0.192q-8.576,8.384-17.216,14.72q-12.928,9.408-20.224,9.408q-0.448,0-0.896-0.064q-9.856-0.832-9.856-10.112q0-5.504,3.456-11.648q4.608-8.192,12.608-13.984t14.336-5.792t6.336,4.672q0,3.136-1.92,6.976t-3.904,4.864q-0.192,0.064-0.416,0.064t-0.224-0.128l2.112-3.456q2.176-3.392,2.176-5.952t-1.12-4.128t-3.552-1.568q-4.992,0-11.936,5.568t-10.56,13.696t-3.616,12.672q0,6.848,6.976,6.848q6.656,0,18.048-8.576q5.056-3.776,16.448-14.272q-2.24,0.128-4.16,0.448q-4.096,0.768-3.84-0.256q0.256-2.368,2.432-2.368q4.224,0.512,7.104,0.512q5.504-5.056,16.448-16.576q7.36-7.744,8.96-7.744q0.704,0,0.704,1.088t-0.576,3.392t-1.28,2.816q-1.472,1.024-2.752,2.784t-3.648,6.592t-4.032,7.84z M265.88928,104.48l-16.384,15.36l3.776,0q1.344,0.064,3.328,0.064q1.856-3.648,9.28-15.424z M294.06016,118.304q0-0.384,0.384-0.384q1.152,0,1.792,1.408q0.768,1.216,0.768,4.224q0,4.608-4.032,9.44t-8.704,4.832q-2.24,0-3.616-2.176t-1.376-4.48t1.024-5.632q-1.856,1.856-5.44,6.368t-4.864,6.624q-0.64,0-1.76-0.704t-1.12-1.344q0-1.536,3.904-10.144t5.824-8.608q0.704,0,1.28,0.672t0.576,1.024t-3.488,6.592t-3.424,7.52q6.08-7.36,6.464-7.808q6.208-7.168,8.128-7.168q0.704,0,1.376,0.608t0.672,1.088t-1.792,2.848t-3.04,4.64t-1.248,4.576q0,4.032,2.688,4.032l0.832,0q3.456,0,6.304-5.28t2.848-8.48q0-2.56-0.832-3.968q-0.128-0.128-0.128-0.32z M321.14304,119.264l0.896-0.192q0.704,0,1.344,0.576t0.64,0.896t-3.968,6.176t-3.968,8.16q0,0.192,0.064,0.384q0.32,1.472,1.408,1.472q3.328,0,12.16-11.008q0.192-0.256,0.448-0.256t0.256,0.48t-0.576,1.248q-8.192,10.944-12.48,10.944q-0.576,0-1.088-0.192q-2.816-1.088-2.816-4.224q0-1.088,0.256-2.176l-3.968,3.84q-3.776,3.328-5.472,3.328t-3.232-1.088q-1.728-1.28-1.728-3.392q0-4.672,6.528-11.168t11.968-6.496q2.112,0,2.816,1.472q0.192,0.512,0.32,0.864t0.192,0.352z M302.00704,135.008q0,2.304,1.6,2.304q3.712,0,10.112-8.128l6.784-9.344q-0.512-0.896-1.664-0.896q-3.904,0-10.368,6.048t-6.464,10.016z M342.14592,138.72q-4.8,0-4.8-5.312q0-2.688,1.408-5.888t3.072-5.376q-0.32,0.064-0.832,0.064q-1.536,0-2.56-2.176l-4.736,6.144q-3.968,4.928-4.608,4.928q-0.32,0-0.32-0.256q0-0.64,1.088-1.856q5.568-6.464,7.872-10.944q1.472-5.568,3.712-5.568q1.472,0,1.472,1.28t-1.6,3.264l-1.536,2.048q0,1.344,1.984,1.344q1.152,0,2.56-0.832l1.664-1.024q0.128-0.064,0.64-0.064t1.088,0.64t0.384,1.152l-4.416,5.568q-4.096,5.248-4.096,8.288t2.816,3.04q2.944,0,7.232-3.136q2.56-1.856,4.672-4.16q1.984-2.304,2.176-2.304q0.448,0,0.448,0.48t-0.576,1.12l-2.048,2.304q-1.728,1.792-3.84,3.456q-5.056,3.776-8.32,3.776z M360.3968,139.232q-0.704,0-1.28-0.192q-4.096-1.152-4.096-4.608q0-4.48,5.632-10.368t10.112-5.888q1.472,0,2.4,0.8t0.928,1.952q0,3.584-5.408,6.848t-8.8,3.264q-0.512,0-0.896-0.128q-0.96,1.728-0.96,3.648q0,3.328,3.168,3.328t8.224-4.288q3.904-3.136,6.656-6.656q0.576-0.768,0.992-0.768t0.416,0.384t-0.512,1.088q-3.456,4.544-8.32,8.064t-8.256,3.52z M372.4928,120.8q0-0.768-1.632-0.768t-4.64,2.496q-4.032,3.328-6.272,6.976q0.384,0.128,0.832,0.128q2.432,0,6.496-2.592t5.088-5.664q0.128-0.32,0.128-0.576z"/><path fill="#" d=""/></svg>
